<svg width="8" height="9" viewBox="0 0 8 9" fill="none" xmlns="http://www.w3.org/2000/svg">
<g clip-path="url(#clip0_568_505)">
<path d="M6.85714 5.90625H3.42857C3.27143 5.90625 3.14286 5.77969 3.14286 5.625V1.125C3.14286 0.970312 3.27143 0.84375 3.42857 0.84375H5.93036L7.14286 2.0373V5.625C7.14286 5.77969 7.01429 5.90625 6.85714 5.90625ZM3.42857 6.75H6.85714C7.4875 6.75 8 6.24551 8 5.625V2.0373C8 1.81406 7.90893 1.59961 7.74821 1.44141L6.5375 0.247852C6.37679 0.0896484 6.15893 0 5.93214 0H3.42857C2.79821 0 2.28571 0.504492 2.28571 1.125V5.625C2.28571 6.24551 2.79821 6.75 3.42857 6.75ZM1.14286 2.25C0.5125 2.25 0 2.75449 0 3.375V7.875C0 8.49551 0.5125 9 1.14286 9H4.57143C5.20179 9 5.71429 8.49551 5.71429 7.875V7.3125H4.85714V7.875C4.85714 8.02969 4.72857 8.15625 4.57143 8.15625H1.14286C0.985714 8.15625 0.857143 8.02969 0.857143 7.875V3.375C0.857143 3.22031 0.985714 3.09375 1.14286 3.09375H1.71429V2.25H1.14286Z" fill="#A6A1B6"/>
</g>
<defs>
<clipPath id="clip0_568_505">
<rect width="8" height="9" fill="white"/>
</clipPath>
</defs>
</svg>
