<svg width="23" height="15" viewBox="0 0 23 15" fill="none" xmlns="http://www.w3.org/2000/svg">
<path d="M6.85364 2.22342C4.04314 2.27026 1.80092 4.5885 1.84777 7.399C1.89462 10.2095 4.21285 12.4517 7.02336 12.4049L16.0735 12.254C18.8841 12.2072 21.1263 9.88894 21.0794 7.07843C21.0326 4.26793 18.7143 2.02571 15.9038 2.07256L6.85364 2.22342ZM0.150862 7.42729C0.0883979 3.67995 3.07802 0.58897 6.82536 0.526506L15.8755 0.37565C19.6229 0.313187 22.7139 3.30281 22.7763 7.05015C22.8388 10.7975 19.8492 13.8885 16.1018 13.9509L7.05164 14.1018C3.3043 14.1643 0.213326 11.1746 0.150862 7.42729ZM8.31959 5.31085L8.33845 6.44212L9.46972 6.42326C9.93991 6.41543 10.3245 6.78739 10.3323 7.25758C10.3402 7.72776 9.96819 8.11234 9.49801 8.12017L8.36674 8.13903L8.38559 9.2703C8.39343 9.74049 8.02147 10.1251 7.55128 10.1329C7.08109 10.1407 6.69652 9.76877 6.68868 9.29859L6.66983 8.16732L5.53855 8.18617C5.06837 8.19401 4.68379 7.82205 4.67595 7.35186C4.66812 6.88168 5.04008 6.4971 5.51027 6.48926L6.64154 6.47041L6.62268 5.33913C6.61485 4.86895 6.98681 4.48437 7.457 4.47653C7.92718 4.4687 8.31176 4.84066 8.31959 5.31085ZM14.3012 7.75721C14.6012 7.75221 14.891 7.8666 15.1067 8.07522C15.3224 8.28384 15.4463 8.5696 15.4513 8.86963C15.4563 9.16966 15.3419 9.45939 15.1333 9.67508C14.9247 9.89077 14.639 10.0148 14.3389 10.0198C14.0389 10.0248 13.7492 9.91037 13.5335 9.70175C13.3178 9.49313 13.1938 9.20738 13.1888 8.90734C13.1838 8.60731 13.2982 8.31758 13.5068 8.10189C13.7154 7.8862 14.0012 7.76221 14.3012 7.75721ZM15.3948 5.47581C15.3898 5.17578 15.5042 4.88605 15.7128 4.67036C15.9214 4.45466 16.2071 4.33068 16.5072 4.32568C16.8072 4.32068 17.0969 4.43507 17.3126 4.64369C17.5283 4.85231 17.6523 5.13806 17.6573 5.4381C17.6623 5.73813 17.5479 6.02786 17.3393 6.24355C17.1307 6.45924 16.8449 6.58322 16.5449 6.58823C16.2449 6.59323 15.9551 6.47884 15.7394 6.27022C15.5238 6.0616 15.3998 5.77584 15.3948 5.47581Z" fill="white"/>
</svg>
