<svg width="20" height="21" viewBox="0 0 20 21" fill="none" xmlns="http://www.w3.org/2000/svg">
<g id="lock-solid 1" clip-path="url(#clip0_568_366)">
<path id="Vector" d="M6.42857 5.90625V7.875H13.5714V5.90625C13.5714 4.09336 11.9732 2.625 10 2.625C8.02679 2.625 6.42857 4.09336 6.42857 5.90625ZM3.57143 7.875V5.90625C3.57143 2.64551 6.45089 0 10 0C13.5491 0 16.4286 2.64551 16.4286 5.90625V7.875H17.1429C18.7188 7.875 20 9.05215 20 10.5V18.375C20 19.8229 18.7188 21 17.1429 21H2.85714C1.28125 21 0 19.8229 0 18.375V10.5C0 9.05215 1.28125 7.875 2.85714 7.875H3.57143Z" fill="#BAB7C0"/>
</g>
<defs>
<clipPath id="clip0_568_366">
<rect width="20" height="21" fill="white"/>
</clipPath>
</defs>
</svg>
